<mxfile host="app.diagrams.net" modified="2023-09-19T14:49:37.082Z" agent="Mozilla/5.0 (Windows NT 10.0; Win64; x64) AppleWebKit/537.36 (KHTML, like Gecko) Chrome/116.0.0.0 Safari/537.36" etag="kqwR4EFDR7xTT0pbTVmn" version="21.7.5" type="device">
  <diagram name="Page-1" id="zDtxhvWKmtjvH-ZGrpPv">
    <mxGraphModel dx="1970" dy="438" grid="1" gridSize="10" guides="1" tooltips="1" connect="1" arrows="1" fold="1" page="1" pageScale="1" pageWidth="850" pageHeight="1100" math="0" shadow="0">
      <root>
        <mxCell id="0" />
        <mxCell id="1" parent="0" />
        <mxCell id="4OK2XnqKNqhnvnKQo9YL-5" style="edgeStyle=orthogonalEdgeStyle;rounded=0;orthogonalLoop=1;jettySize=auto;html=1;" parent="1" source="4OK2XnqKNqhnvnKQo9YL-1" target="4OK2XnqKNqhnvnKQo9YL-4" edge="1">
          <mxGeometry relative="1" as="geometry" />
        </mxCell>
        <mxCell id="4OK2XnqKNqhnvnKQo9YL-1" value="Start" style="ellipse;whiteSpace=wrap;html=1;" parent="1" vertex="1">
          <mxGeometry x="160" y="20" width="120" height="80" as="geometry" />
        </mxCell>
        <mxCell id="4OK2XnqKNqhnvnKQo9YL-7" value="" style="edgeStyle=orthogonalEdgeStyle;rounded=0;orthogonalLoop=1;jettySize=auto;html=1;" parent="1" source="4OK2XnqKNqhnvnKQo9YL-4" target="iodD-ADhZu1srqg-s7n0-1" edge="1">
          <mxGeometry relative="1" as="geometry">
            <mxPoint x="590" y="60" as="targetPoint" />
          </mxGeometry>
        </mxCell>
        <mxCell id="4OK2XnqKNqhnvnKQo9YL-4" value="Input Type of Weather, Accumulation Amount and Temperature" style="rounded=1;whiteSpace=wrap;html=1;" parent="1" vertex="1">
          <mxGeometry x="350" y="27.5" width="200" height="65" as="geometry" />
        </mxCell>
        <mxCell id="iodD-ADhZu1srqg-s7n0-58" style="edgeStyle=orthogonalEdgeStyle;rounded=0;orthogonalLoop=1;jettySize=auto;html=1;entryX=1;entryY=0.5;entryDx=0;entryDy=0;" edge="1" parent="1" source="iodD-ADhZu1srqg-s7n0-1" target="iodD-ADhZu1srqg-s7n0-56">
          <mxGeometry relative="1" as="geometry">
            <Array as="points">
              <mxPoint x="960" y="60" />
              <mxPoint x="960" y="850" />
            </Array>
          </mxGeometry>
        </mxCell>
        <mxCell id="iodD-ADhZu1srqg-s7n0-59" style="edgeStyle=orthogonalEdgeStyle;rounded=0;orthogonalLoop=1;jettySize=auto;html=1;entryX=0;entryY=0.5;entryDx=0;entryDy=0;" edge="1" parent="1" source="iodD-ADhZu1srqg-s7n0-1" target="iodD-ADhZu1srqg-s7n0-2">
          <mxGeometry relative="1" as="geometry" />
        </mxCell>
        <mxCell id="iodD-ADhZu1srqg-s7n0-1" value="Is Weather Mixed?" style="rhombus;whiteSpace=wrap;html=1;" vertex="1" parent="1">
          <mxGeometry x="590" y="10" width="100" height="100" as="geometry" />
        </mxCell>
        <mxCell id="iodD-ADhZu1srqg-s7n0-60" style="edgeStyle=orthogonalEdgeStyle;rounded=0;orthogonalLoop=1;jettySize=auto;html=1;entryX=0.5;entryY=0;entryDx=0;entryDy=0;exitX=0.5;exitY=1;exitDx=0;exitDy=0;" edge="1" parent="1" source="iodD-ADhZu1srqg-s7n0-2" target="iodD-ADhZu1srqg-s7n0-4">
          <mxGeometry relative="1" as="geometry">
            <Array as="points">
              <mxPoint x="610" y="180" />
              <mxPoint x="610" y="150" />
            </Array>
          </mxGeometry>
        </mxCell>
        <mxCell id="iodD-ADhZu1srqg-s7n0-62" style="edgeStyle=orthogonalEdgeStyle;rounded=0;orthogonalLoop=1;jettySize=auto;html=1;entryX=0;entryY=0.5;entryDx=0;entryDy=0;exitX=0.5;exitY=1;exitDx=0;exitDy=0;" edge="1" parent="1" source="iodD-ADhZu1srqg-s7n0-2" target="iodD-ADhZu1srqg-s7n0-3">
          <mxGeometry relative="1" as="geometry">
            <Array as="points">
              <mxPoint x="770" y="180" />
              <mxPoint x="770" y="180" />
            </Array>
          </mxGeometry>
        </mxCell>
        <mxCell id="iodD-ADhZu1srqg-s7n0-2" value="Accumulation &amp;lt;= 3.5?" style="rhombus;whiteSpace=wrap;html=1;" vertex="1" parent="1">
          <mxGeometry x="690" y="80" width="110" height="100" as="geometry" />
        </mxCell>
        <mxCell id="iodD-ADhZu1srqg-s7n0-66" style="edgeStyle=orthogonalEdgeStyle;rounded=0;orthogonalLoop=1;jettySize=auto;html=1;entryX=1;entryY=0.5;entryDx=0;entryDy=0;" edge="1" parent="1" source="iodD-ADhZu1srqg-s7n0-3" target="iodD-ADhZu1srqg-s7n0-56">
          <mxGeometry relative="1" as="geometry">
            <Array as="points">
              <mxPoint x="940" y="180" />
              <mxPoint x="940" y="850" />
            </Array>
          </mxGeometry>
        </mxCell>
        <mxCell id="iodD-ADhZu1srqg-s7n0-3" value="Display No Action Required" style="rounded=1;whiteSpace=wrap;html=1;" vertex="1" parent="1">
          <mxGeometry x="800" y="150" width="120" height="60" as="geometry" />
        </mxCell>
        <mxCell id="iodD-ADhZu1srqg-s7n0-17" style="edgeStyle=orthogonalEdgeStyle;rounded=0;orthogonalLoop=1;jettySize=auto;html=1;entryX=0.5;entryY=0;entryDx=0;entryDy=0;" edge="1" parent="1" source="iodD-ADhZu1srqg-s7n0-4" target="iodD-ADhZu1srqg-s7n0-11">
          <mxGeometry relative="1" as="geometry">
            <Array as="points">
              <mxPoint x="655" y="200" />
            </Array>
          </mxGeometry>
        </mxCell>
        <mxCell id="iodD-ADhZu1srqg-s7n0-25" style="edgeStyle=orthogonalEdgeStyle;rounded=0;orthogonalLoop=1;jettySize=auto;html=1;" edge="1" parent="1" source="iodD-ADhZu1srqg-s7n0-4" target="iodD-ADhZu1srqg-s7n0-5">
          <mxGeometry relative="1" as="geometry" />
        </mxCell>
        <mxCell id="iodD-ADhZu1srqg-s7n0-4" value="Accumulation &amp;gt;3.5 - 5.75 cm?" style="rhombus;whiteSpace=wrap;html=1;" vertex="1" parent="1">
          <mxGeometry x="490" y="150" width="110" height="100" as="geometry" />
        </mxCell>
        <mxCell id="iodD-ADhZu1srqg-s7n0-38" style="edgeStyle=orthogonalEdgeStyle;rounded=0;orthogonalLoop=1;jettySize=auto;html=1;exitX=0.5;exitY=1;exitDx=0;exitDy=0;entryX=0.5;entryY=0;entryDx=0;entryDy=0;" edge="1" parent="1" source="iodD-ADhZu1srqg-s7n0-5" target="iodD-ADhZu1srqg-s7n0-29">
          <mxGeometry relative="1" as="geometry" />
        </mxCell>
        <mxCell id="iodD-ADhZu1srqg-s7n0-39" style="edgeStyle=orthogonalEdgeStyle;rounded=0;orthogonalLoop=1;jettySize=auto;html=1;entryX=0.5;entryY=0;entryDx=0;entryDy=0;" edge="1" parent="1" source="iodD-ADhZu1srqg-s7n0-5" target="iodD-ADhZu1srqg-s7n0-6">
          <mxGeometry relative="1" as="geometry">
            <Array as="points">
              <mxPoint x="230" y="200" />
              <mxPoint x="230" y="200" />
            </Array>
          </mxGeometry>
        </mxCell>
        <mxCell id="iodD-ADhZu1srqg-s7n0-5" value="Accumulation &amp;gt;5.75- 16.5 cm?" style="rhombus;whiteSpace=wrap;html=1;" vertex="1" parent="1">
          <mxGeometry x="290" y="145" width="110" height="110" as="geometry" />
        </mxCell>
        <mxCell id="iodD-ADhZu1srqg-s7n0-51" style="edgeStyle=orthogonalEdgeStyle;rounded=0;orthogonalLoop=1;jettySize=auto;html=1;entryX=0.5;entryY=0;entryDx=0;entryDy=0;" edge="1" parent="1" source="iodD-ADhZu1srqg-s7n0-6" target="iodD-ADhZu1srqg-s7n0-42">
          <mxGeometry relative="1" as="geometry">
            <Array as="points">
              <mxPoint x="15" y="310" />
            </Array>
          </mxGeometry>
        </mxCell>
        <mxCell id="iodD-ADhZu1srqg-s7n0-53" style="edgeStyle=orthogonalEdgeStyle;rounded=0;orthogonalLoop=1;jettySize=auto;html=1;" edge="1" parent="1" source="iodD-ADhZu1srqg-s7n0-6" target="iodD-ADhZu1srqg-s7n0-7">
          <mxGeometry relative="1" as="geometry">
            <Array as="points">
              <mxPoint x="250" y="450" />
              <mxPoint x="295" y="450" />
            </Array>
          </mxGeometry>
        </mxCell>
        <mxCell id="iodD-ADhZu1srqg-s7n0-6" value="Accumulation &amp;gt; -16.5 - 40.0 cm?" style="rhombus;whiteSpace=wrap;html=1;" vertex="1" parent="1">
          <mxGeometry x="140" y="200" width="110" height="110" as="geometry" />
        </mxCell>
        <mxCell id="iodD-ADhZu1srqg-s7n0-55" style="edgeStyle=orthogonalEdgeStyle;rounded=0;orthogonalLoop=1;jettySize=auto;html=1;entryX=0.5;entryY=0;entryDx=0;entryDy=0;" edge="1" parent="1" source="iodD-ADhZu1srqg-s7n0-7" target="iodD-ADhZu1srqg-s7n0-54">
          <mxGeometry relative="1" as="geometry">
            <Array as="points">
              <mxPoint x="410" y="620" />
            </Array>
          </mxGeometry>
        </mxCell>
        <mxCell id="iodD-ADhZu1srqg-s7n0-7" value="Accumulation &amp;gt;40.0 cm?" style="rhombus;whiteSpace=wrap;html=1;" vertex="1" parent="1">
          <mxGeometry x="240" y="510" width="110" height="110" as="geometry" />
        </mxCell>
        <mxCell id="iodD-ADhZu1srqg-s7n0-19" style="edgeStyle=orthogonalEdgeStyle;rounded=0;orthogonalLoop=1;jettySize=auto;html=1;" edge="1" parent="1" source="iodD-ADhZu1srqg-s7n0-11" target="iodD-ADhZu1srqg-s7n0-14">
          <mxGeometry relative="1" as="geometry" />
        </mxCell>
        <mxCell id="iodD-ADhZu1srqg-s7n0-23" style="edgeStyle=orthogonalEdgeStyle;rounded=0;orthogonalLoop=1;jettySize=auto;html=1;entryX=0.5;entryY=0;entryDx=0;entryDy=0;" edge="1" parent="1" source="iodD-ADhZu1srqg-s7n0-11" target="iodD-ADhZu1srqg-s7n0-12">
          <mxGeometry relative="1" as="geometry">
            <Array as="points">
              <mxPoint x="620" y="290" />
              <mxPoint x="620" y="290" />
            </Array>
          </mxGeometry>
        </mxCell>
        <mxCell id="iodD-ADhZu1srqg-s7n0-11" value="Temp &amp;lt;-15.0?" style="rhombus;whiteSpace=wrap;html=1;" vertex="1" parent="1">
          <mxGeometry x="615" y="210" width="80" height="80" as="geometry" />
        </mxCell>
        <mxCell id="iodD-ADhZu1srqg-s7n0-20" style="edgeStyle=orthogonalEdgeStyle;rounded=0;orthogonalLoop=1;jettySize=auto;html=1;" edge="1" parent="1" source="iodD-ADhZu1srqg-s7n0-12" target="iodD-ADhZu1srqg-s7n0-15">
          <mxGeometry relative="1" as="geometry" />
        </mxCell>
        <mxCell id="iodD-ADhZu1srqg-s7n0-24" style="edgeStyle=orthogonalEdgeStyle;rounded=0;orthogonalLoop=1;jettySize=auto;html=1;entryX=0.5;entryY=0;entryDx=0;entryDy=0;" edge="1" parent="1" source="iodD-ADhZu1srqg-s7n0-12" target="iodD-ADhZu1srqg-s7n0-13">
          <mxGeometry relative="1" as="geometry">
            <Array as="points">
              <mxPoint x="630" y="370" />
              <mxPoint x="630" y="370" />
            </Array>
          </mxGeometry>
        </mxCell>
        <mxCell id="iodD-ADhZu1srqg-s7n0-12" value="Temp -15.0 - 7.0?" style="rhombus;whiteSpace=wrap;html=1;" vertex="1" parent="1">
          <mxGeometry x="560" y="290" width="80" height="80" as="geometry" />
        </mxCell>
        <mxCell id="iodD-ADhZu1srqg-s7n0-22" style="edgeStyle=orthogonalEdgeStyle;rounded=0;orthogonalLoop=1;jettySize=auto;html=1;" edge="1" parent="1" source="iodD-ADhZu1srqg-s7n0-13" target="iodD-ADhZu1srqg-s7n0-16">
          <mxGeometry relative="1" as="geometry" />
        </mxCell>
        <mxCell id="iodD-ADhZu1srqg-s7n0-13" value="Temp &amp;gt;- 7.0?" style="rhombus;whiteSpace=wrap;html=1;" vertex="1" parent="1">
          <mxGeometry x="610" y="370" width="80" height="80" as="geometry" />
        </mxCell>
        <mxCell id="iodD-ADhZu1srqg-s7n0-74" style="edgeStyle=orthogonalEdgeStyle;rounded=0;orthogonalLoop=1;jettySize=auto;html=1;entryX=1;entryY=0.5;entryDx=0;entryDy=0;" edge="1" parent="1" source="iodD-ADhZu1srqg-s7n0-14" target="iodD-ADhZu1srqg-s7n0-56">
          <mxGeometry relative="1" as="geometry">
            <Array as="points">
              <mxPoint x="920" y="250" />
              <mxPoint x="920" y="850" />
            </Array>
          </mxGeometry>
        </mxCell>
        <mxCell id="iodD-ADhZu1srqg-s7n0-14" value="Display Send 1 Plow Truck and 1 Sand Truck(Light)" style="rounded=1;whiteSpace=wrap;html=1;" vertex="1" parent="1">
          <mxGeometry x="715" y="225" width="110" height="50" as="geometry" />
        </mxCell>
        <mxCell id="iodD-ADhZu1srqg-s7n0-75" style="edgeStyle=orthogonalEdgeStyle;rounded=0;orthogonalLoop=1;jettySize=auto;html=1;entryX=1;entryY=0.5;entryDx=0;entryDy=0;" edge="1" parent="1" source="iodD-ADhZu1srqg-s7n0-15" target="iodD-ADhZu1srqg-s7n0-56">
          <mxGeometry relative="1" as="geometry">
            <Array as="points">
              <mxPoint x="900" y="330" />
              <mxPoint x="900" y="850" />
            </Array>
          </mxGeometry>
        </mxCell>
        <mxCell id="iodD-ADhZu1srqg-s7n0-15" value="Display Send 1 Plow Truck and 1 Salt Truck(Light)" style="rounded=1;whiteSpace=wrap;html=1;" vertex="1" parent="1">
          <mxGeometry x="680" y="305" width="115" height="50" as="geometry" />
        </mxCell>
        <mxCell id="iodD-ADhZu1srqg-s7n0-76" style="edgeStyle=orthogonalEdgeStyle;rounded=0;orthogonalLoop=1;jettySize=auto;html=1;entryX=1.033;entryY=0.613;entryDx=0;entryDy=0;entryPerimeter=0;" edge="1" parent="1" source="iodD-ADhZu1srqg-s7n0-16" target="iodD-ADhZu1srqg-s7n0-56">
          <mxGeometry relative="1" as="geometry">
            <Array as="points">
              <mxPoint x="880" y="410" />
              <mxPoint x="880" y="850" />
              <mxPoint x="384" y="850" />
            </Array>
          </mxGeometry>
        </mxCell>
        <mxCell id="iodD-ADhZu1srqg-s7n0-16" value="Display Send 1 Plow Truck" style="rounded=1;whiteSpace=wrap;html=1;" vertex="1" parent="1">
          <mxGeometry x="715" y="390" width="80" height="40" as="geometry" />
        </mxCell>
        <mxCell id="iodD-ADhZu1srqg-s7n0-27" style="edgeStyle=orthogonalEdgeStyle;rounded=0;orthogonalLoop=1;jettySize=auto;html=1;" edge="1" parent="1" source="iodD-ADhZu1srqg-s7n0-29" target="iodD-ADhZu1srqg-s7n0-35">
          <mxGeometry relative="1" as="geometry" />
        </mxCell>
        <mxCell id="iodD-ADhZu1srqg-s7n0-28" style="edgeStyle=orthogonalEdgeStyle;rounded=0;orthogonalLoop=1;jettySize=auto;html=1;entryX=0.5;entryY=0;entryDx=0;entryDy=0;" edge="1" parent="1" source="iodD-ADhZu1srqg-s7n0-29" target="iodD-ADhZu1srqg-s7n0-32">
          <mxGeometry relative="1" as="geometry">
            <Array as="points">
              <mxPoint x="320" y="350" />
              <mxPoint x="320" y="350" />
            </Array>
          </mxGeometry>
        </mxCell>
        <mxCell id="iodD-ADhZu1srqg-s7n0-29" value="Temp &amp;lt;-15.0?" style="rhombus;whiteSpace=wrap;html=1;" vertex="1" parent="1">
          <mxGeometry x="315" y="270" width="80" height="80" as="geometry" />
        </mxCell>
        <mxCell id="iodD-ADhZu1srqg-s7n0-30" style="edgeStyle=orthogonalEdgeStyle;rounded=0;orthogonalLoop=1;jettySize=auto;html=1;" edge="1" parent="1" source="iodD-ADhZu1srqg-s7n0-32" target="iodD-ADhZu1srqg-s7n0-36">
          <mxGeometry relative="1" as="geometry" />
        </mxCell>
        <mxCell id="iodD-ADhZu1srqg-s7n0-31" style="edgeStyle=orthogonalEdgeStyle;rounded=0;orthogonalLoop=1;jettySize=auto;html=1;entryX=0.5;entryY=0;entryDx=0;entryDy=0;" edge="1" parent="1" source="iodD-ADhZu1srqg-s7n0-32" target="iodD-ADhZu1srqg-s7n0-34">
          <mxGeometry relative="1" as="geometry">
            <Array as="points">
              <mxPoint x="330" y="430" />
              <mxPoint x="330" y="430" />
            </Array>
          </mxGeometry>
        </mxCell>
        <mxCell id="iodD-ADhZu1srqg-s7n0-32" value="Temp -15.0 - 7.0?" style="rhombus;whiteSpace=wrap;html=1;" vertex="1" parent="1">
          <mxGeometry x="260" y="350" width="80" height="80" as="geometry" />
        </mxCell>
        <mxCell id="iodD-ADhZu1srqg-s7n0-33" style="edgeStyle=orthogonalEdgeStyle;rounded=0;orthogonalLoop=1;jettySize=auto;html=1;" edge="1" parent="1" source="iodD-ADhZu1srqg-s7n0-34" target="iodD-ADhZu1srqg-s7n0-37">
          <mxGeometry relative="1" as="geometry" />
        </mxCell>
        <mxCell id="iodD-ADhZu1srqg-s7n0-34" value="Temp &amp;gt;- 7.0?" style="rhombus;whiteSpace=wrap;html=1;" vertex="1" parent="1">
          <mxGeometry x="310" y="430" width="80" height="80" as="geometry" />
        </mxCell>
        <mxCell id="iodD-ADhZu1srqg-s7n0-85" style="edgeStyle=orthogonalEdgeStyle;rounded=0;orthogonalLoop=1;jettySize=auto;html=1;" edge="1" parent="1" source="iodD-ADhZu1srqg-s7n0-35" target="iodD-ADhZu1srqg-s7n0-56">
          <mxGeometry relative="1" as="geometry">
            <Array as="points">
              <mxPoint x="540" y="310" />
              <mxPoint x="540" y="380" />
              <mxPoint x="600" y="380" />
              <mxPoint x="600" y="822" />
            </Array>
          </mxGeometry>
        </mxCell>
        <mxCell id="iodD-ADhZu1srqg-s7n0-35" value="Display Send 1 Plow Truck and 1 Sand Truck(Heavy)" style="rounded=1;whiteSpace=wrap;html=1;" vertex="1" parent="1">
          <mxGeometry x="415" y="285" width="110" height="50" as="geometry" />
        </mxCell>
        <mxCell id="iodD-ADhZu1srqg-s7n0-87" style="edgeStyle=orthogonalEdgeStyle;rounded=0;orthogonalLoop=1;jettySize=auto;html=1;entryX=0.917;entryY=0.15;entryDx=0;entryDy=0;entryPerimeter=0;" edge="1" parent="1" source="iodD-ADhZu1srqg-s7n0-36" target="iodD-ADhZu1srqg-s7n0-56">
          <mxGeometry relative="1" as="geometry">
            <mxPoint x="410" y="770" as="targetPoint" />
            <Array as="points">
              <mxPoint x="570" y="390" />
              <mxPoint x="570" y="822" />
              <mxPoint x="438" y="822" />
              <mxPoint x="438" y="828" />
              <mxPoint x="370" y="828" />
            </Array>
          </mxGeometry>
        </mxCell>
        <mxCell id="iodD-ADhZu1srqg-s7n0-36" value="Display Send 1 Plow Truck and 1 Salt Truck(Heavy)" style="rounded=1;whiteSpace=wrap;html=1;" vertex="1" parent="1">
          <mxGeometry x="380" y="365" width="115" height="50" as="geometry" />
        </mxCell>
        <mxCell id="iodD-ADhZu1srqg-s7n0-88" style="edgeStyle=orthogonalEdgeStyle;rounded=0;orthogonalLoop=1;jettySize=auto;html=1;entryX=1;entryY=0;entryDx=0;entryDy=0;" edge="1" parent="1" source="iodD-ADhZu1srqg-s7n0-37" target="iodD-ADhZu1srqg-s7n0-56">
          <mxGeometry relative="1" as="geometry">
            <mxPoint x="440" y="800" as="targetPoint" />
            <Array as="points">
              <mxPoint x="550" y="470" />
              <mxPoint x="550" y="825" />
              <mxPoint x="362" y="825" />
            </Array>
          </mxGeometry>
        </mxCell>
        <mxCell id="iodD-ADhZu1srqg-s7n0-37" value="Display Send 1 Plow Truck and 1 Salt Truck(Normal)" style="rounded=1;whiteSpace=wrap;html=1;" vertex="1" parent="1">
          <mxGeometry x="422.5" y="440" width="95" height="60" as="geometry" />
        </mxCell>
        <mxCell id="iodD-ADhZu1srqg-s7n0-40" style="edgeStyle=orthogonalEdgeStyle;rounded=0;orthogonalLoop=1;jettySize=auto;html=1;" edge="1" parent="1" source="iodD-ADhZu1srqg-s7n0-42" target="iodD-ADhZu1srqg-s7n0-48">
          <mxGeometry relative="1" as="geometry" />
        </mxCell>
        <mxCell id="iodD-ADhZu1srqg-s7n0-41" style="edgeStyle=orthogonalEdgeStyle;rounded=0;orthogonalLoop=1;jettySize=auto;html=1;entryX=0.5;entryY=0;entryDx=0;entryDy=0;" edge="1" parent="1" source="iodD-ADhZu1srqg-s7n0-42" target="iodD-ADhZu1srqg-s7n0-45">
          <mxGeometry relative="1" as="geometry">
            <Array as="points">
              <mxPoint x="-20" y="415" />
              <mxPoint x="-20" y="415" />
            </Array>
          </mxGeometry>
        </mxCell>
        <mxCell id="iodD-ADhZu1srqg-s7n0-42" value="Temp &amp;lt;-15.0?" style="rhombus;whiteSpace=wrap;html=1;" vertex="1" parent="1">
          <mxGeometry x="-25" y="335" width="80" height="80" as="geometry" />
        </mxCell>
        <mxCell id="iodD-ADhZu1srqg-s7n0-43" style="edgeStyle=orthogonalEdgeStyle;rounded=0;orthogonalLoop=1;jettySize=auto;html=1;" edge="1" parent="1" source="iodD-ADhZu1srqg-s7n0-45" target="iodD-ADhZu1srqg-s7n0-49">
          <mxGeometry relative="1" as="geometry" />
        </mxCell>
        <mxCell id="iodD-ADhZu1srqg-s7n0-44" style="edgeStyle=orthogonalEdgeStyle;rounded=0;orthogonalLoop=1;jettySize=auto;html=1;entryX=0.5;entryY=0;entryDx=0;entryDy=0;" edge="1" parent="1" source="iodD-ADhZu1srqg-s7n0-45" target="iodD-ADhZu1srqg-s7n0-47">
          <mxGeometry relative="1" as="geometry">
            <Array as="points">
              <mxPoint x="-10" y="495" />
              <mxPoint x="-10" y="495" />
            </Array>
          </mxGeometry>
        </mxCell>
        <mxCell id="iodD-ADhZu1srqg-s7n0-45" value="Temp -15.0 - 7.0?" style="rhombus;whiteSpace=wrap;html=1;" vertex="1" parent="1">
          <mxGeometry x="-80" y="415" width="80" height="80" as="geometry" />
        </mxCell>
        <mxCell id="iodD-ADhZu1srqg-s7n0-46" style="edgeStyle=orthogonalEdgeStyle;rounded=0;orthogonalLoop=1;jettySize=auto;html=1;" edge="1" parent="1" source="iodD-ADhZu1srqg-s7n0-47" target="iodD-ADhZu1srqg-s7n0-50">
          <mxGeometry relative="1" as="geometry" />
        </mxCell>
        <mxCell id="iodD-ADhZu1srqg-s7n0-47" value="Temp &amp;gt;- 7.0?" style="rhombus;whiteSpace=wrap;html=1;" vertex="1" parent="1">
          <mxGeometry x="-30" y="495" width="80" height="80" as="geometry" />
        </mxCell>
        <mxCell id="iodD-ADhZu1srqg-s7n0-99" style="edgeStyle=orthogonalEdgeStyle;rounded=0;orthogonalLoop=1;jettySize=auto;html=1;entryX=0;entryY=0.5;entryDx=0;entryDy=0;" edge="1" parent="1" source="iodD-ADhZu1srqg-s7n0-48" target="iodD-ADhZu1srqg-s7n0-56">
          <mxGeometry relative="1" as="geometry" />
        </mxCell>
        <mxCell id="iodD-ADhZu1srqg-s7n0-48" value="Display Send 2 Plow Truck and 1 Sand Truck(Heavy)" style="rounded=1;whiteSpace=wrap;html=1;" vertex="1" parent="1">
          <mxGeometry x="75" y="350" width="110" height="50" as="geometry" />
        </mxCell>
        <mxCell id="iodD-ADhZu1srqg-s7n0-100" style="edgeStyle=orthogonalEdgeStyle;rounded=0;orthogonalLoop=1;jettySize=auto;html=1;entryX=0;entryY=0.5;entryDx=0;entryDy=0;" edge="1" parent="1" source="iodD-ADhZu1srqg-s7n0-49" target="iodD-ADhZu1srqg-s7n0-56">
          <mxGeometry relative="1" as="geometry" />
        </mxCell>
        <mxCell id="iodD-ADhZu1srqg-s7n0-49" value="Display Send 2 Plow Truck and 1 Salt Truck(Heavy)" style="rounded=1;whiteSpace=wrap;html=1;" vertex="1" parent="1">
          <mxGeometry x="40" y="430" width="115" height="50" as="geometry" />
        </mxCell>
        <mxCell id="iodD-ADhZu1srqg-s7n0-101" style="edgeStyle=orthogonalEdgeStyle;rounded=0;orthogonalLoop=1;jettySize=auto;html=1;entryX=0;entryY=0.5;entryDx=0;entryDy=0;" edge="1" parent="1" source="iodD-ADhZu1srqg-s7n0-50" target="iodD-ADhZu1srqg-s7n0-56">
          <mxGeometry relative="1" as="geometry">
            <Array as="points">
              <mxPoint x="190" y="535" />
              <mxPoint x="190" y="850" />
            </Array>
          </mxGeometry>
        </mxCell>
        <mxCell id="iodD-ADhZu1srqg-s7n0-50" value="Display Send 2 Plow Truck and 1 Salt Truck(Light)" style="rounded=1;whiteSpace=wrap;html=1;arcSize=30;" vertex="1" parent="1">
          <mxGeometry x="82.5" y="505" width="95" height="60" as="geometry" />
        </mxCell>
        <mxCell id="iodD-ADhZu1srqg-s7n0-57" style="edgeStyle=orthogonalEdgeStyle;rounded=0;orthogonalLoop=1;jettySize=auto;html=1;" edge="1" parent="1" source="iodD-ADhZu1srqg-s7n0-54" target="iodD-ADhZu1srqg-s7n0-56">
          <mxGeometry relative="1" as="geometry" />
        </mxCell>
        <mxCell id="iodD-ADhZu1srqg-s7n0-54" value="Display State of Emergency (Organize Army and Other Jurisdiction Support)" style="rounded=1;whiteSpace=wrap;html=1;" vertex="1" parent="1">
          <mxGeometry x="350" y="630" width="120" height="60" as="geometry" />
        </mxCell>
        <mxCell id="iodD-ADhZu1srqg-s7n0-56" value="Exit" style="ellipse;whiteSpace=wrap;html=1;" vertex="1" parent="1">
          <mxGeometry x="260" y="810" width="120" height="80" as="geometry" />
        </mxCell>
        <mxCell id="iodD-ADhZu1srqg-s7n0-63" value="Yes" style="text;html=1;align=center;verticalAlign=middle;resizable=0;points=[];autosize=1;strokeColor=none;fillColor=none;" vertex="1" parent="1">
          <mxGeometry x="640" y="110" width="40" height="30" as="geometry" />
        </mxCell>
        <mxCell id="iodD-ADhZu1srqg-s7n0-64" value="Yes" style="text;html=1;align=center;verticalAlign=middle;resizable=0;points=[];autosize=1;strokeColor=none;fillColor=none;" vertex="1" parent="1">
          <mxGeometry x="760" y="158" width="40" height="30" as="geometry" />
        </mxCell>
        <mxCell id="iodD-ADhZu1srqg-s7n0-65" value="No" style="text;html=1;align=center;verticalAlign=middle;resizable=0;points=[];autosize=1;strokeColor=none;fillColor=none;" vertex="1" parent="1">
          <mxGeometry x="650" y="158" width="40" height="30" as="geometry" />
        </mxCell>
        <mxCell id="iodD-ADhZu1srqg-s7n0-67" value="Yes" style="text;html=1;align=center;verticalAlign=middle;resizable=0;points=[];autosize=1;strokeColor=none;fillColor=none;" vertex="1" parent="1">
          <mxGeometry x="600" y="195" width="40" height="30" as="geometry" />
        </mxCell>
        <mxCell id="iodD-ADhZu1srqg-s7n0-68" value="Yes" style="text;html=1;align=center;verticalAlign=middle;resizable=0;points=[];autosize=1;strokeColor=none;fillColor=none;" vertex="1" parent="1">
          <mxGeometry x="680" y="218" width="40" height="30" as="geometry" />
        </mxCell>
        <mxCell id="iodD-ADhZu1srqg-s7n0-69" value="No" style="text;html=1;align=center;verticalAlign=middle;resizable=0;points=[];autosize=1;strokeColor=none;fillColor=none;" vertex="1" parent="1">
          <mxGeometry x="600" y="268" width="40" height="30" as="geometry" />
        </mxCell>
        <mxCell id="iodD-ADhZu1srqg-s7n0-70" value="Yes" style="text;html=1;align=center;verticalAlign=middle;resizable=0;points=[];autosize=1;strokeColor=none;fillColor=none;" vertex="1" parent="1">
          <mxGeometry x="640" y="305" width="40" height="30" as="geometry" />
        </mxCell>
        <mxCell id="iodD-ADhZu1srqg-s7n0-72" value="No" style="text;html=1;align=center;verticalAlign=middle;resizable=0;points=[];autosize=1;strokeColor=none;fillColor=none;" vertex="1" parent="1">
          <mxGeometry x="600" y="365" width="40" height="30" as="geometry" />
        </mxCell>
        <mxCell id="iodD-ADhZu1srqg-s7n0-73" value="Yes" style="text;html=1;align=center;verticalAlign=middle;resizable=0;points=[];autosize=1;strokeColor=none;fillColor=none;" vertex="1" parent="1">
          <mxGeometry x="680" y="385" width="40" height="30" as="geometry" />
        </mxCell>
        <mxCell id="iodD-ADhZu1srqg-s7n0-78" value="No" style="text;html=1;align=center;verticalAlign=middle;resizable=0;points=[];autosize=1;strokeColor=none;fillColor=none;" vertex="1" parent="1">
          <mxGeometry x="425" y="180" width="40" height="30" as="geometry" />
        </mxCell>
        <mxCell id="iodD-ADhZu1srqg-s7n0-79" value="Yes" style="text;html=1;align=center;verticalAlign=middle;resizable=0;points=[];autosize=1;strokeColor=none;fillColor=none;" vertex="1" parent="1">
          <mxGeometry x="350" y="245" width="40" height="30" as="geometry" />
        </mxCell>
        <mxCell id="iodD-ADhZu1srqg-s7n0-80" value="Yes" style="text;html=1;align=center;verticalAlign=middle;resizable=0;points=[];autosize=1;strokeColor=none;fillColor=none;" vertex="1" parent="1">
          <mxGeometry x="380" y="278" width="40" height="30" as="geometry" />
        </mxCell>
        <mxCell id="iodD-ADhZu1srqg-s7n0-81" value="No" style="text;html=1;align=center;verticalAlign=middle;resizable=0;points=[];autosize=1;strokeColor=none;fillColor=none;" vertex="1" parent="1">
          <mxGeometry x="310" y="350" width="40" height="30" as="geometry" />
        </mxCell>
        <mxCell id="iodD-ADhZu1srqg-s7n0-82" value="Yes" style="text;html=1;align=center;verticalAlign=middle;resizable=0;points=[];autosize=1;strokeColor=none;fillColor=none;" vertex="1" parent="1">
          <mxGeometry x="335" y="385" width="40" height="30" as="geometry" />
        </mxCell>
        <mxCell id="iodD-ADhZu1srqg-s7n0-83" value="No" style="text;html=1;align=center;verticalAlign=middle;resizable=0;points=[];autosize=1;strokeColor=none;fillColor=none;" vertex="1" parent="1">
          <mxGeometry x="300" y="428" width="40" height="30" as="geometry" />
        </mxCell>
        <mxCell id="iodD-ADhZu1srqg-s7n0-84" value="Yes" style="text;html=1;align=center;verticalAlign=middle;resizable=0;points=[];autosize=1;strokeColor=none;fillColor=none;" vertex="1" parent="1">
          <mxGeometry x="382.5" y="450" width="40" height="30" as="geometry" />
        </mxCell>
        <mxCell id="iodD-ADhZu1srqg-s7n0-89" value="Yes" style="text;html=1;align=center;verticalAlign=middle;resizable=0;points=[];autosize=1;strokeColor=none;fillColor=none;" vertex="1" parent="1">
          <mxGeometry x="355" y="600" width="40" height="30" as="geometry" />
        </mxCell>
        <mxCell id="iodD-ADhZu1srqg-s7n0-90" value="No" style="text;html=1;align=center;verticalAlign=middle;resizable=0;points=[];autosize=1;strokeColor=none;fillColor=none;" vertex="1" parent="1">
          <mxGeometry x="230" y="178" width="40" height="30" as="geometry" />
        </mxCell>
        <mxCell id="iodD-ADhZu1srqg-s7n0-91" value="No" style="text;html=1;align=center;verticalAlign=middle;resizable=0;points=[];autosize=1;strokeColor=none;fillColor=none;" vertex="1" parent="1">
          <mxGeometry x="240" y="260" width="40" height="30" as="geometry" />
        </mxCell>
        <mxCell id="iodD-ADhZu1srqg-s7n0-92" value="Yes" style="text;html=1;align=center;verticalAlign=middle;resizable=0;points=[];autosize=1;strokeColor=none;fillColor=none;" vertex="1" parent="1">
          <mxGeometry x="77.5" y="285" width="40" height="30" as="geometry" />
        </mxCell>
        <mxCell id="iodD-ADhZu1srqg-s7n0-93" value="Yes" style="text;html=1;align=center;verticalAlign=middle;resizable=0;points=[];autosize=1;strokeColor=none;fillColor=none;" vertex="1" parent="1">
          <mxGeometry x="40" y="348" width="40" height="30" as="geometry" />
        </mxCell>
        <mxCell id="iodD-ADhZu1srqg-s7n0-94" value="No" style="text;html=1;align=center;verticalAlign=middle;resizable=0;points=[];autosize=1;strokeColor=none;fillColor=none;" vertex="1" parent="1">
          <mxGeometry x="-40" y="390" width="40" height="30" as="geometry" />
        </mxCell>
        <mxCell id="iodD-ADhZu1srqg-s7n0-95" value="Yes" style="text;html=1;align=center;verticalAlign=middle;resizable=0;points=[];autosize=1;strokeColor=none;fillColor=none;" vertex="1" parent="1">
          <mxGeometry x="-5" y="430" width="40" height="30" as="geometry" />
        </mxCell>
        <mxCell id="iodD-ADhZu1srqg-s7n0-96" value="No" style="text;html=1;align=center;verticalAlign=middle;resizable=0;points=[];autosize=1;strokeColor=none;fillColor=none;" vertex="1" parent="1">
          <mxGeometry x="-40" y="488" width="40" height="30" as="geometry" />
        </mxCell>
        <mxCell id="iodD-ADhZu1srqg-s7n0-97" value="Yes" style="text;html=1;align=center;verticalAlign=middle;resizable=0;points=[];autosize=1;strokeColor=none;fillColor=none;" vertex="1" parent="1">
          <mxGeometry x="42.5" y="510" width="40" height="30" as="geometry" />
        </mxCell>
      </root>
    </mxGraphModel>
  </diagram>
</mxfile>
